<svg x="0" y="0" version="1.1" xmlns="http://www.w3.org/2000/svg" xmlns:xlink="http://www.w3.org/1999/xlink" viewBox="0 0 48 48"><g transform=""><g fill="none" stroke="none" stroke-width="1" stroke-linecap="butt" stroke-linejoin="miter" stroke-miterlimit="10" stroke-dasharray="" stroke-dashoffset="0" font-family="sans-serif" font-weight="normal" font-size="12" text-anchor="start" mix-blend-mode="normal"><g><g><g><path d="M0,48l0,-48l48,0l0,48z" fill="none"/><g><g id="surface1"><path d="M47,31l0,-14c-3.30078,0 -6,-2.69922 -6,-6l-34,0c0,3.30078 -2.69922,6 -6,6l0,14c3.30078,0 6,2.69922 6,6l34,0c0,-3.30078 2.69922,-6 6,-6z" fill="#90caf9"/><path d="M39,21l-30,0l0,-2l30,0z M39,23l-30,0l0,2l30,0z M33,27l-18,0l0,2l18,0z" fill="#1976d2"/></g></g><g><g id="IOS_copy"><path d="M37.2557,36.73161c-2.19624,-2.19624 -2.19624,-5.79008 0,-7.98631l1.09812,-1.09812c2.19624,-2.19624 5.79008,-2.19624 7.98631,0c2.19624,2.19624 2.19624,5.69025 0.09983,7.98631l-1.09812,1.09812c-2.39589,2.19624 -5.8899,2.19624 -8.08614,0z M44.24372,29.84341c-0.99829,-0.99829 -2.69538,-0.99829 -3.69367,0l-1.09812,1.09812c-0.99829,0.99829 -0.99829,2.69538 0,3.69367c0.99829,0.99829 2.69538,0.99829 3.7935,0l1.09812,-1.09812c0.89846,-0.99829 0.89846,-2.69538 -0.09983,-3.69367z M27.67212,46.31518c-2.19624,-2.19624 -2.19624,-5.79008 0,-7.98631l1.09812,-1.09812c2.19624,-2.19624 5.79008,-2.19624 7.98631,0c2.19624,2.19624 2.19624,5.69025 0.09983,7.98631l-1.09812,1.09812c-2.39589,2.29607 -5.8899,2.19624 -8.08614,0z M34.66015,39.42699c-0.99829,-0.99829 -2.69538,-0.99829 -3.69367,0l-1.09812,1.09812c-0.99829,0.99829 -0.99829,2.69538 0,3.69367c0.99829,0.99829 2.69538,0.99829 3.7935,0l1.09812,-1.09812c0.89846,-0.99829 0.89846,-2.69538 -0.09983,-3.69367z" fill="#1976d2"/><path d="M32.46391,41.52339c-0.59897,-0.59897 -0.59897,-1.49743 0,-2.09641l6.88819,-6.88819c0.59897,-0.59897 1.49743,-0.59897 2.09641,0c0.59897,0.59897 0.59897,1.49743 0,2.09641l-6.88819,6.88819c-0.49914,0.59897 -1.49743,0.59897 -2.09641,0z" fill="#42a5f5"/></g><path d="M22.42786,37c0,-8.05486 6.52975,-14.58462 14.58462,-14.58462c8.05486,0 14.58462,6.52975 14.58462,14.58462c0,8.05486 -6.52975,14.58462 -14.58462,14.58462c-8.05486,0 -14.58462,-6.52975 -14.58462,-14.58462z" fill="#ff0000" opacity="0"/></g></g></g></g></g></g></svg>