<svg xmlns="http://www.w3.org/2000/svg" xmlns:xlink="http://www.w3.org/1999/xlink" viewBox="0 0 48 48" version="1.1">
<g id="surface1">
<path style=" fill:#2196F3;" d="M 31 15 L 31 43 L 9 43 C 6.800781 43 5 41.199219 5 39 L 5 15 Z "/>
<path style=" fill:#BBDEFB;" d="M 13 5 L 13 39 C 13 41.199219 11.199219 43 9 43 L 38 43 C 40.199219 43 42 41.199219 42 39 L 42 5 Z "/>
<path style=" fill:#64B5F6;" d="M 19 10 L 37 10 L 37 14 L 19 14 Z M 19 17 L 27 17 L 27 19 L 19 19 Z M 29 17 L 37 17 L 37 19 L 29 19 Z M 19 21 L 27 21 L 27 23 L 19 23 Z M 29 21 L 37 21 L 37 23 L 29 23 Z M 19 25 L 27 25 L 27 27 L 19 27 Z M 29 25 L 37 25 L 37 27 L 29 27 Z M 19 29 L 27 29 L 27 31 L 19 31 Z M 29 29 L 37 29 L 37 31 L 29 31 Z M 19 33 L 27 33 L 27 35 L 19 35 Z M 29 33 L 37 33 L 37 35 L 29 35 Z M 19 37 L 27 37 L 27 39 L 19 39 Z M 29 37 L 37 37 L 37 39 L 29 39 Z "/>
</g>
</svg>